<?xml version="1.0" encoding="UTF-8" standalone="no"?>
<svg width="1412px" height="1411px" viewBox="0 0 1412 1411" version="1.1" xmlns="http://www.w3.org/2000/svg" xmlns:xlink="http://www.w3.org/1999/xlink" xmlns:sketch="http://www.bohemiancoding.com/sketch/ns">
    <!-- Generator: Sketch 3.2.2 (9983) - http://www.bohemiancoding.com/sketch -->
    <title>background-stripes-improved</title>
    <desc>Created with Sketch.</desc>
    <defs>
        <linearGradient x1="50%" y1="0%" x2="50%" y2="100%" id="linearGradient-1">
            <stop stop-color="#FFFFFF" stop-opacity="0" offset="0%"></stop>
            <stop stop-color="#FFFFFF" offset="100%"></stop>
        </linearGradient>
    </defs>
    <g id="Page-1" stroke="none" stroke-width="1" fill="none" fill-rule="evenodd" sketch:type="MSPage">
        <g id="Stripes" sketch:type="MSLayerGroup" fill="url(#linearGradient-1)">
            <path d="M666,0 L746,0 L706,707 L666,0 Z" id="Rectangle-2" sketch:type="MSShapeGroup"></path>
            <path d="M490,47 L570,47 L530,754 L490,47 Z" id="Rectangle-4" sketch:type="MSShapeGroup" transform="translate(530.000000, 400.500000) rotate(-30.000000) translate(-530.000000, -400.500000) "></path>
            <path d="M575,12 L655,12 L615,719 L575,12 Z" id="Rectangle-3" sketch:type="MSShapeGroup" transform="translate(615.000000, 365.500000) rotate(-15.000000) translate(-615.000000, -365.500000) "></path>
            <path d="M417,103 L497,103 L457,810 L417,103 Z" id="Rectangle-5" sketch:type="MSShapeGroup" transform="translate(457.000000, 456.500000) rotate(-45.000000) translate(-457.000000, -456.500000) "></path>
            <path d="M326,261 L406,261 L366,968 L326,261 Z" id="Rectangle-7" sketch:type="MSShapeGroup" transform="translate(366.000000, 614.500000) rotate(-75.000000) translate(-366.000000, -614.500000) "></path>
            <path d="M361,176 L441,176 L401,883 L361,176 Z" id="Rectangle-6" sketch:type="MSShapeGroup" transform="translate(401.000000, 529.500000) rotate(-60.000000) translate(-401.000000, -529.500000) "></path>
            <path d="M1018,352 L1098,352 L1058,1059 L1018,352 Z" id="Rectangle-2" sketch:type="MSShapeGroup" transform="translate(1058.000000, 705.500000) rotate(-270.000000) translate(-1058.000000, -705.500000) "></path>
            <path d="M971,176 L1051,176 L1011,883 L971,176 Z" id="Rectangle-4" sketch:type="MSShapeGroup" transform="translate(1011.000000, 529.500000) rotate(-300.000000) translate(-1011.000000, -529.500000) "></path>
            <path d="M1006,261 L1086,261 L1046,968 L1006,261 Z" id="Rectangle-3" sketch:type="MSShapeGroup" transform="translate(1046.000000, 614.500000) rotate(-285.000000) translate(-1046.000000, -614.500000) "></path>
            <path d="M915,103 L995,103 L955,810 L915,103 Z" id="Rectangle-5" sketch:type="MSShapeGroup" transform="translate(955.000000, 456.500000) rotate(-315.000000) translate(-955.000000, -456.500000) "></path>
            <path d="M757,12 L837,12 L797,719 L757,12 Z" id="Rectangle-7" sketch:type="MSShapeGroup" transform="translate(797.000000, 365.500000) rotate(-345.000000) translate(-797.000000, -365.500000) "></path>
            <path d="M842,47 L922,47 L882,754 L842,47 Z" id="Rectangle-6" sketch:type="MSShapeGroup" transform="translate(882.000000, 400.500000) rotate(-330.000000) translate(-882.000000, -400.500000) "></path>
            <path d="M666,704 L746,704 L706,1411 L666,704 Z" id="Rectangle-2" sketch:type="MSShapeGroup" transform="translate(706.000000, 1057.500000) rotate(-180.000000) translate(-706.000000, -1057.500000) "></path>
            <path d="M842,657 L922,657 L882,1364 L842,657 Z" id="Rectangle-4" sketch:type="MSShapeGroup" transform="translate(882.000000, 1010.500000) rotate(-210.000000) translate(-882.000000, -1010.500000) "></path>
            <path d="M757,692 L837,692 L797,1399 L757,692 Z" id="Rectangle-3" sketch:type="MSShapeGroup" transform="translate(797.000000, 1045.500000) rotate(-195.000000) translate(-797.000000, -1045.500000) "></path>
            <path d="M915,601 L995,601 L955,1308 L915,601 Z" id="Rectangle-5" sketch:type="MSShapeGroup" transform="translate(955.000000, 954.500000) rotate(-225.000000) translate(-955.000000, -954.500000) "></path>
            <path d="M1006,443 L1086,443 L1046,1150 L1006,443 Z" id="Rectangle-7" sketch:type="MSShapeGroup" transform="translate(1046.000000, 796.500000) rotate(-255.000000) translate(-1046.000000, -796.500000) "></path>
            <path d="M971,528 L1051,528 L1011,1235 L971,528 Z" id="Rectangle-6" sketch:type="MSShapeGroup" transform="translate(1011.000000, 881.500000) rotate(-240.000000) translate(-1011.000000, -881.500000) "></path>
            <path d="M314,352 L394,352 L354,1059 L314,352 Z" id="Rectangle-2" sketch:type="MSShapeGroup" transform="translate(354.000000, 705.500000) rotate(-90.000000) translate(-354.000000, -705.500000) "></path>
            <path d="M361,528 L441,528 L401,1235 L361,528 Z" id="Rectangle-4" sketch:type="MSShapeGroup" transform="translate(401.000000, 881.500000) rotate(-120.000000) translate(-401.000000, -881.500000) "></path>
            <path d="M326,443 L406,443 L366,1150 L326,443 Z" id="Rectangle-3" sketch:type="MSShapeGroup" transform="translate(366.000000, 796.500000) rotate(-105.000000) translate(-366.000000, -796.500000) "></path>
            <path d="M417,601 L497,601 L457,1308 L417,601 Z" id="Rectangle-5" sketch:type="MSShapeGroup" transform="translate(457.000000, 954.500000) rotate(-135.000000) translate(-457.000000, -954.500000) "></path>
            <path d="M575,692 L655,692 L615,1399 L575,692 Z" id="Rectangle-7" sketch:type="MSShapeGroup" transform="translate(615.000000, 1045.500000) rotate(-165.000000) translate(-615.000000, -1045.500000) "></path>
            <path d="M490,657 L570,657 L530,1364 L490,657 Z" id="Rectangle-6" sketch:type="MSShapeGroup" transform="translate(530.000000, 1010.500000) rotate(-150.000000) translate(-530.000000, -1010.500000) "></path>
        </g>
    </g>
</svg>
