<?xml version="1.0" encoding="UTF-8" standalone="no"?>
<svg width="1412px" height="1411px" viewBox="0 0 1412 1411" version="1.1" xmlns="http://www.w3.org/2000/svg" xmlns:xlink="http://www.w3.org/1999/xlink" xmlns:sketch="http://www.bohemiancoding.com/sketch/ns">
    <!-- Generator: Sketch 3.2.2 (9983) - http://www.bohemiancoding.com/sketch -->
    <title>background-stripes-improved</title>
    <desc>Created with Sketch.</desc>
    <defs>
        <linearGradient x1="50%" y1="0%" x2="50%" y2="100%" id="linearGradient-1">
            <stop stop-color="#FFFFFF" stop-opacity="0" offset="0%"></stop>
            <stop stop-color="#FFFFFF" offset="100%"></stop>
        </linearGradient>
    </defs>
    <g id="Page-1" stroke="none" stroke-width="1" fill="none" fill-rule="evenodd" sketch:type="MSPage">
        <g id="Group" sketch:type="MSLayerGroup" fill="url(#linearGradient-1)">
          <animateTransform
              attributeName="transform"
              attributeType="XML"
              type="rotate"
              from="0 706 706"
              to="360 706 706"
              dur="180s"
              repeatCount="indefinite"
              />
            <g transform="translate(14.000000, 0.000000)" sketch:type="MSShapeGroup">
                <path d="M652,0 L732,0 L692,707 L652,0 Z" id="Rectangle-2"></path>
                <path d="M476,47 L556,47 L516,754 L476,47 Z" id="Rectangle-4" transform="translate(516.000000, 400.500000) rotate(-30.000000) translate(-516.000000, -400.500000) "></path>
                <path d="M561,12 L641,12 L601,719 L561,12 Z" id="Rectangle-3" transform="translate(601.000000, 365.500000) rotate(-15.000000) translate(-601.000000, -365.500000) "></path>
                <path d="M403,103 L483,103 L443,810 L403,103 Z" id="Rectangle-5" transform="translate(443.000000, 456.500000) rotate(-45.000000) translate(-443.000000, -456.500000) "></path>
                <path d="M312,261 L392,261 L352,968 L312,261 Z" id="Rectangle-7" transform="translate(352.000000, 614.500000) rotate(-75.000000) translate(-352.000000, -614.500000) "></path>
                <path d="M347,176 L427,176 L387,883 L347,176 Z" id="Rectangle-6" transform="translate(387.000000, 529.500000) rotate(-60.000000) translate(-387.000000, -529.500000) "></path>
            </g>
            <g id="Group-4" transform="translate(1039.000000, 379.500000) rotate(-270.000000) translate(-1039.000000, -379.500000) translate(673.000000, 7.000000)" sketch:type="MSShapeGroup">
                <path d="M652,0 L732,0 L692,707 L652,0 Z" id="Rectangle-2"></path>
                <path d="M476,47 L556,47 L516,754 L476,47 Z" id="Rectangle-4" transform="translate(516.000000, 400.500000) rotate(-30.000000) translate(-516.000000, -400.500000) "></path>
                <path d="M561,12 L641,12 L601,719 L561,12 Z" id="Rectangle-3" transform="translate(601.000000, 365.500000) rotate(-15.000000) translate(-601.000000, -365.500000) "></path>
                <path d="M403,103 L483,103 L443,810 L403,103 Z" id="Rectangle-5" transform="translate(443.000000, 456.500000) rotate(-45.000000) translate(-443.000000, -456.500000) "></path>
                <path d="M312,261 L392,261 L352,968 L312,261 Z" id="Rectangle-7" transform="translate(352.000000, 614.500000) rotate(-75.000000) translate(-352.000000, -614.500000) "></path>
                <path d="M347,176 L427,176 L387,883 L347,176 Z" id="Rectangle-6" transform="translate(387.000000, 529.500000) rotate(-60.000000) translate(-387.000000, -529.500000) "></path>
            </g>
            <g id="Group-2" transform="translate(1032.000000, 1038.500000) rotate(-180.000000) translate(-1032.000000, -1038.500000) translate(666.000000, 666.000000)" sketch:type="MSShapeGroup">
                <path d="M652,0 L732,0 L692,707 L652,0 Z" id="Rectangle-2"></path>
                <path d="M476,47 L556,47 L516,754 L476,47 Z" id="Rectangle-4" transform="translate(516.000000, 400.500000) rotate(-30.000000) translate(-516.000000, -400.500000) "></path>
                <path d="M561,12 L641,12 L601,719 L561,12 Z" id="Rectangle-3" transform="translate(601.000000, 365.500000) rotate(-15.000000) translate(-601.000000, -365.500000) "></path>
                <path d="M403,103 L483,103 L443,810 L403,103 Z" id="Rectangle-5" transform="translate(443.000000, 456.500000) rotate(-45.000000) translate(-443.000000, -456.500000) "></path>
                <path d="M312,261 L392,261 L352,968 L312,261 Z" id="Rectangle-7" transform="translate(352.000000, 614.500000) rotate(-75.000000) translate(-352.000000, -614.500000) "></path>
                <path d="M347,176 L427,176 L387,883 L347,176 Z" id="Rectangle-6" transform="translate(387.000000, 529.500000) rotate(-60.000000) translate(-387.000000, -529.500000) "></path>
            </g>
            <g id="Group-3" transform="translate(373.000000, 1031.500000) rotate(-90.000000) translate(-373.000000, -1031.500000) translate(7.000000, 659.000000)" sketch:type="MSShapeGroup">
                <path d="M652,0 L732,0 L692,707 L652,0 Z" id="Rectangle-2"></path>
                <path d="M476,47 L556,47 L516,754 L476,47 Z" id="Rectangle-4" transform="translate(516.000000, 400.500000) rotate(-30.000000) translate(-516.000000, -400.500000) "></path>
                <path d="M561,12 L641,12 L601,719 L561,12 Z" id="Rectangle-3" transform="translate(601.000000, 365.500000) rotate(-15.000000) translate(-601.000000, -365.500000) "></path>
                <path d="M403,103 L483,103 L443,810 L403,103 Z" id="Rectangle-5" transform="translate(443.000000, 456.500000) rotate(-45.000000) translate(-443.000000, -456.500000) "></path>
                <path d="M312,261 L392,261 L352,968 L312,261 Z" id="Rectangle-7" transform="translate(352.000000, 614.500000) rotate(-75.000000) translate(-352.000000, -614.500000) "></path>
                <path d="M347,176 L427,176 L387,883 L347,176 Z" id="Rectangle-6" transform="translate(387.000000, 529.500000) rotate(-60.000000) translate(-387.000000, -529.500000) "></path>
            </g>
        </g>
    </g>
</svg>
